<svg version="1.2" xmlns="http://www.w3.org/2000/svg" viewBox="0 0 1980 280" width="1980" height="280"><style>.a{fill:#2aff00}.b{fill:#ff00c6}</style><path class="a" d="m155.5 125.8l-1.2 7.4q-0.7 3-1.4 8.2l-146.1-15.6zm-152.7 35.7h147.5q-1.1 8.5-1.1 15.6zm13-71.4h148.6l-4.4 15.2zm-8.2 107.1h142q1.4 10.4 2.6 15.6zm25.6-142.7h146.4q-5.2 9.6-7.4 14.8zm10 178.8h117.4q4.8 8.5 11.2 13.7zm41.2-214.4h130.4q-10.7 6.7-16.7 12.3zm163.1 237.8q-46.8 0-67.2-18.2-20.1-18.2-20.1-56.1 0-16 5.2-47.2 11.2-63.9 38.3-92.9 27.5-29 86.6-29 13.7 0 31.2 3 17.8 2.6 26 6.7l-20.8 56.8q-21.9-5.2-41.3-5.2-18.9 0-27.1 3.7-8.2 3.8-10 14.9l-17.1 97.4q13.4 2.9 27.5 2.9 30.1 0 55-8.9l-6 62.4q-23.8 9.7-60.2 9.7zm249.4-42.4l-14.5 36.8h-74.4l97.8-232.2h109.2l16.4 232.2h-74.7l-1.5-36.8zm23-59h29.8v-65.1h-3.8zm-116.6 78.1l-7.1 16.3-152.3-16.3zm15.2-36.1l-7.1 16.4-152.3-16.4zm14.9-35.7l-6.7 16.4-152.4-16.4zm15.3-35.6l-7.1 16.3-152-16.3zm14.9-35.7l-6.7 16.4-152-16.4zm30.1-71.3l-6.7 15.9-151.6-15.9zm-15.2 35.6l-6.7 16-151.6-16zm-143.1-35.6l151.6 15.9 6.7-15.9zm668.5 176.1h-46.1l-9.6 56.1h-70.6l40.8-232.2h111.5q63.2 0 63.2 58.7 0 27.8-7.8 50.5-7.8 22.3-17.5 35.7-9.3 13-26 22.3-16.4 8.9-37.9 8.9zm-35.7-59.5h16.4q12.6 0 18.9-2.6 6.7-2.9 8.6-13 4.8-27.5 4.8-30.1 0-7-5.6-9.3-5.5-2.2-16.7-2.2h-16.3zm-98.9 97.7l-3 16.8-157.5-16.8zm12.6-71.7l-2.9 16.7-157.6-16.7zm12.3-71.3l-3 16.7-157.2-16.7zm6.3-35.7l-2.9 16.7-157.2-16.7zm-24.9 142.7l-3 16.7-157.5-16.7zm31.2-178.4l-3 16.8-157.2-16.8zm-18.9 107.1l-3 16.7-157.2-16.7zm354.2 88.4l-14.5 36.8h-74.4l97.8-232.3h109.2l16.4 232.3h-74.7l-1.5-36.8zm23-59.1h29.8v-65h-3.8zm-116.6 78l-7.1 16.4-152.3-16.4zm15.2-36l-7.1 16.3-152.3-16.3zm14.9-35.7l-6.7 16.3-152.4-16.3zm15.3-35.7l-7.1 16.4-152-16.4zm14.9-35.6l-6.7 16.3-152-16.3zm30.1-71.4l-6.7 16-151.6-16zm-15.2 35.7l-6.7 16-151.6-16zm-143.1-35.7l151.6 16 6.7-16zm434.4 0h111.5q63.5 0 63.5 56.9 0 23.4-7 44.6-13 40.1-40.9 53.5l24.5 77.2h-77.7l-17-69.1h-15.3l-11.9 69.1h-70.6zm51.7 105.9h16.3q12.7 0 19-2.6 6.7-2.9 8.9-15.9 2.6-13.4 2.6-16.4 0-7.4-5.9-9.3-5.6-2.2-18.6-2.2h-14.1zm-100.7 108.5l-3 16.7-157.6-16.7zm12.7-71.7l-3 16.7-157.5-16.7zm12.2-71.4l-3 16.8-157.1-16.8zm6.3-35.6l-3 16.7-157.2-16.7zm-24.9 142.7l-2.9 16.7-157.6-16.7zm31.2-178.4l-2.9 16.7-157.2-16.7zm-19 107l-2.9 16.7-157.2-16.7zm493.4-107l-10.7 59.5h-51.3l-30.1 172.7h-70.6l30.1-172.7h-50.9l10.7-59.5zm-171.2 214.4l-3 16.7-157.6-16.7zm12.7-71.7l-3 16.7-157.6-16.7zm6.4-35.7l-3 16.7-157.6-16.7zm6.4-35.7l-3 16.8-157.6-16.8zm-18.9 107.1l-3 16.7-157.5-16.7zm-26-142.7l-2.6 16.7-157.6-16.7zm6.3-35.7l-2.9 16.7-157.2-16.7z"/><path class="b" d="m157.5 112.8l-1.2 7.4q-0.7 3-1.4 8.2l-146.1-15.6zm-152.7 35.7h147.5q-1.1 8.5-1.1 15.6zm13-71.4h148.6l-4.4 15.2zm-8.2 107.1h142q1.4 10.4 2.6 15.6zm25.6-142.7h146.4q-5.2 9.6-7.4 14.8zm10 178.8h117.4q4.8 8.5 11.2 13.7zm41.2-214.4h130.4q-10.7 6.7-16.7 12.3zm163.1 237.8q-46.8 0-67.2-18.2-20.1-18.2-20.1-56.1 0-16 5.2-47.2 11.2-63.9 38.3-92.9 27.5-29 86.6-29 13.7 0 31.2 3 17.8 2.6 26 6.7l-20.8 56.8q-21.9-5.2-41.3-5.2-18.9 0-27.1 3.7-8.2 3.8-10 14.9l-17.1 97.4q13.4 2.9 27.5 2.9 30.1 0 55-8.9l-6 62.4q-23.8 9.7-60.2 9.7zm249.4-42.4l-14.5 36.8h-74.4l97.8-232.2h109.2l16.4 232.2h-74.7l-1.5-36.8zm23-59h29.8v-65.1h-3.8zm-116.6 78.1l-7.1 16.3-152.3-16.3zm15.2-36.1l-7.1 16.4-152.3-16.4zm14.9-35.7l-6.7 16.4-152.4-16.4zm15.3-35.6l-7.1 16.3-152-16.3zm14.9-35.7l-6.7 16.4-152-16.4zm30.1-71.3l-6.7 15.9-151.6-15.9zm-15.2 35.6l-6.7 16-151.6-16zm-143.1-35.6l151.6 15.9 6.7-15.9zm668.5 176.1h-46.1l-9.6 56.1h-70.6l40.8-232.2h111.5q63.2 0 63.2 58.7 0 27.8-7.8 50.5-7.8 22.3-17.5 35.7-9.3 13-26 22.3-16.4 8.9-37.9 8.9zm-35.7-59.5h16.4q12.6 0 18.9-2.6 6.7-2.9 8.6-13 4.8-27.5 4.8-30.1 0-7-5.6-9.3-5.5-2.2-16.7-2.2h-16.3zm-98.9 97.7l-3 16.8-157.5-16.8zm12.6-71.7l-2.9 16.7-157.6-16.7zm12.3-71.3l-3 16.7-157.2-16.7zm6.3-35.7l-2.9 16.7-157.2-16.7zm-24.9 142.7l-3 16.7-157.5-16.7zm31.2-178.4l-3 16.8-157.2-16.8zm-18.9 107.1l-3 16.7-157.2-16.7zm354.2 88.4l-14.5 36.8h-74.4l97.8-232.3h109.2l16.4 232.3h-74.7l-1.5-36.8zm23-59.1h29.8v-65h-3.8zm-116.6 78l-7.1 16.4-152.3-16.4zm15.2-36l-7.1 16.3-152.3-16.3zm14.9-35.7l-6.7 16.3-152.4-16.3zm15.3-35.7l-7.1 16.4-152-16.4zm14.9-35.6l-6.7 16.3-152-16.3zm30.1-71.4l-6.7 16-151.6-16zm-15.2 35.7l-6.7 16-151.6-16zm-143.1-35.7l151.6 16 6.7-16zm434.4 0h111.5q63.5 0 63.5 56.9 0 23.4-7 44.6-13 40.1-40.9 53.5l24.5 77.2h-77.7l-17-69.1h-15.3l-11.9 69.1h-70.6zm51.7 105.9h16.3q12.7 0 19-2.6 6.7-2.9 8.9-15.9 2.6-13.4 2.6-16.4 0-7.4-5.9-9.3-5.6-2.2-18.6-2.2h-14.1zm-100.7 108.5l-3 16.7-157.6-16.7zm12.7-71.7l-3 16.7-157.5-16.7zm12.2-71.4l-3 16.8-157.1-16.8zm6.3-35.6l-3 16.7-157.2-16.7zm-24.9 142.7l-2.9 16.7-157.6-16.7zm31.2-178.4l-2.9 16.7-157.2-16.7zm-19 107l-2.9 16.7-157.2-16.7zm493.4-107l-10.7 59.5h-51.3l-30.1 172.7h-70.6l30.1-172.7h-50.9l10.7-59.5zm-171.2 214.4l-3 16.7-157.6-16.7zm12.7-71.7l-3 16.7-157.6-16.7zm6.4-35.7l-3 16.7-157.6-16.7zm6.4-35.7l-3 16.8-157.6-16.8zm-18.9 107.1l-3 16.7-157.5-16.7zm-26-142.7l-2.6 16.7-157.6-16.7zm6.3-35.7l-2.9 16.7-157.2-16.7z"/><path class="a" d="m231.4 228.3l21.8 12-25.6 46.4-21.8-12z"/><path class="b" d="m238.4 216.3l21.8 12-25.6 46.4-21.8-12z"/></svg>